<?xml version="1.0" encoding="UTF-8"?>
<svg width="30px" height="30px" viewBox="0 0 32 32" version="1.1" xmlns="http://www.w3.org/2000/svg" xmlns:xlink="http://www.w3.org/1999/xlink">
    <title>Icon</title>
    <g id="Page-1" stroke="none" stroke-width="1" fill="none" fill-rule="evenodd" stroke-linecap="square">
        <g id="Landingpage" transform="translate(-459.000000, -892.000000)" stroke="#FFFFFF" stroke-width="2">
            <g id="Item-4" transform="translate(320.000000, 893.000000)">
                <g id="Icon" transform="translate(140.000000, 0.000000)">
                    <line x1="16" y1="18" x2="16" y2="8" id="Path"></line>
                    <line x1="20" y1="8" x2="20" y2="21" id="Path"></line>
                    <path d="M12,2 C12,0.9 12.8999996,0 14,0 C17,0 18,4 18,4 C18,4 15.1000004,4 14,4 C12.8999996,4 12,3.0999999 12,2 Z" id="Path"></path>
                    <path d="M24,2 C24,0.9 23.1000004,0 22,0 C19,0 18,4 18,4 C18,4 20.8999996,4 22,4 C23.1000004,4 24,3.0999999 24,2 Z" id="Path"></path>
                    <polyline id="Path" points="27 8 27 21 24 21"></polyline>
                    <line x1="9" y1="16" x2="9" y2="8" id="Path"></line>
                    <rect id="Rectangle" x="6" y="4" width="24" height="4"></rect>
                    <path d="M19.3489265,21 L25,21 C28.6000004,21 29,23 29,23 L14.6999998,28.7999992 C13.5999994,29.2999992 12.2999992,29.1999988 11.1999998,28.6999988 L0,23 L0,16 L5,16 C7.3000002,16 9.8000002,17.2000008 11,19 L15,19 C17,19 19,21 19,23 L10,23" id="Path"></path>
                </g>
            </g>
        </g>
    </g>
</svg>